<svg width="656" height="656" viewBox="0 0 656 656" fill="none" xmlns="http://www.w3.org/2000/svg">
<circle cx="328" cy="328" r="328" fill="#D80505"/>
<path d="M381.333 298.684V192.895L328.5 140L275.667 192.895V228.158H170V475H487V298.684H381.333ZM240.444 439.737H205.222V404.474H240.444V439.737ZM240.444 369.211H205.222V333.947H240.444V369.211ZM240.444 298.684H205.222V263.421H240.444V298.684ZM346.111 439.737H310.889V404.474H346.111V439.737ZM346.111 369.211H310.889V333.947H346.111V369.211ZM346.111 298.684H310.889V263.421H346.111V298.684ZM346.111 228.158H310.889V192.895H346.111V228.158ZM451.778 439.737H416.556V404.474H451.778V439.737ZM451.778 369.211H416.556V333.947H451.778V369.211Z" fill="white"/>
</svg>
